<?xml version="1.0" standalone="no"?><!DOCTYPE svg PUBLIC "-//W3C//DTD SVG 1.1//EN" "http://www.w3.org/Graphics/SVG/1.1/DTD/svg11.dtd"><svg t="1628668776621" class="icon" viewBox="0 0 1024 1024" version="1.1" xmlns="http://www.w3.org/2000/svg" p-id="1300" xmlns:xlink="http://www.w3.org/1999/xlink" width="200" height="200"><defs><style type="text/css"></style></defs><path d="M440.96 477.12h134.784a32 32 0 0 1 29.44 19.552l48.96 115.776a32 32 0 0 1-7.584 35.84l-115.776 108.288a32 32 0 0 1-43.84-0.096l-114.624-108.32a32 32 0 0 1-7.712-35.2l46.688-115.776a32 32 0 0 1 29.664-20.032z m21.632 64l-30.464 75.488 76.896 72.672 77.504-72.48-32-75.68h-91.936z" fill="#8a8a8a" p-id="1301"></path><path d="M500.736 101.024L110.784 349.632a32 32 0 0 0-14.784 26.976v75.52l0.224 3.744A32 32 0 0 0 128 484.16l67.584-0.032v266.976H128a32 32 0 0 0-32 32V896a32 32 0 0 0 32 32h768a32 32 0 0 0 32-32v-112.896l-0.224-3.744a32 32 0 0 0-31.776-28.256h-72.736v-266.976H896a32 32 0 0 0 32-32v-75.52a32 32 0 0 0-14.4-26.72l-378.08-248.64a32 32 0 0 0-34.784-0.224z m16.928 65.088L864 393.856v26.272h-72.736a32 32 0 0 0-32 32v330.976l0.224 3.744a32 32 0 0 0 31.776 28.256H864V864H160v-48.896h67.584a32 32 0 0 0 32-32V452.16l-0.192-3.744a32 32 0 0 0-31.808-28.256L160 420.128v-25.984l357.664-228.032z" fill="#8a8a8a" p-id="1302"></path><path d="M697.984 362.656a32 32 0 0 1 3.712 63.776l-3.712 0.224H304a32 32 0 0 1-3.744-63.776l3.744-0.224h393.984z" fill="#8a8a8a" p-id="1303"></path></svg>